<?xml version="1.0" encoding="iso-8859-1"?>
<!-- Generator: Adobe Illustrator 16.0.0, SVG Export Plug-In . SVG Version: 6.00 Build 0)  -->
<!DOCTYPE svg PUBLIC "-//W3C//DTD SVG 1.1//EN" "http://www.w3.org/Graphics/SVG/1.1/DTD/svg11.dtd">
<svg version="1.1" id="Capa_1" xmlns="http://www.w3.org/2000/svg" xmlns:xlink="http://www.w3.org/1999/xlink" x="0px" y="0px"
	 width="890px" height="890px" viewBox="0 0 890 890" style="enable-background:new 0 0 890 890;" xml:space="preserve">
<g>
	<path d="M0,840c0,27.6,22.4,50,50,50h790c27.6,0,50-22.4,50-50V50c0-27.6-22.4-50-50-50H50C22.4,0,0,22.4,0,50V840z M485.6,780.4
		C485.6,802.8,467.4,821,445,821l0,0c-22.4,0-40.6-18.2-40.6-40.6V647.5c0-22.4,18.199-40.6,40.6-40.6l0,0
		c22.4,0,40.6,18.199,40.6,40.6V780.4z M445,355.1c49.6,0,89.9,40.2,89.9,89.9s-40.2,89.9-89.9,89.9s-89.9-40.2-89.9-89.9
		S395.4,355.1,445,355.1z M71.5,124.9c0-27.6,22.4-50,50-50H264c27.6,0,50,22.4,50,50v142.5c0,27.6-22.4,50-50,50H121.5
		c-27.6,0-50-22.4-50-50V124.9z"/>
</g>
<g>
</g>
<g>
</g>
<g>
</g>
<g>
</g>
<g>
</g>
<g>
</g>
<g>
</g>
<g>
</g>
<g>
</g>
<g>
</g>
<g>
</g>
<g>
</g>
<g>
</g>
<g>
</g>
<g>
</g>
</svg>
