<?xml version="1.0" encoding="iso-8859-1"?>
<!-- Generator: Adobe Illustrator 16.0.0, SVG Export Plug-In . SVG Version: 6.00 Build 0)  -->
<!DOCTYPE svg PUBLIC "-//W3C//DTD SVG 1.1//EN" "http://www.w3.org/Graphics/SVG/1.1/DTD/svg11.dtd">
<svg version="1.1" id="Capa_1" xmlns="http://www.w3.org/2000/svg" xmlns:xlink="http://www.w3.org/1999/xlink" x="0px" y="0px"
	 width="895.3px" height="895.3px" viewBox="0 0 895.3 895.3" style="enable-background:new 0 0 895.3 895.3;" xml:space="preserve"
	>
<g>
	<g>
		<path d="M0,792.65c0,27.6,22.4,50,50,50h795.3c27.601,0,50-22.4,50-50v-534.9H0V792.65z M81.2,337.65h75v125.5h-75V337.65z"/>
		<path d="M845.4,52.65H50c-27.6,0-50,22.4-50,50v110.1h895.3v-110.1C895.4,75.05,873,52.65,845.4,52.65z M287.7,105.65
			c16.6,0,30,13.4,30,30s-13.4,30-30,30s-30-13.4-30-30S271.2,105.65,287.7,105.65z M188.2,105.65c16.6,0,30,13.4,30,30
			s-13.4,30-30,30s-30-13.4-30-30S171.7,105.65,188.2,105.65z M88.7,105.65c16.6,0,30,13.4,30,30s-13.4,30-30,30s-30-13.4-30-30
			S72.2,105.65,88.7,105.65z"/>
	</g>
</g>
<g>
</g>
<g>
</g>
<g>
</g>
<g>
</g>
<g>
</g>
<g>
</g>
<g>
</g>
<g>
</g>
<g>
</g>
<g>
</g>
<g>
</g>
<g>
</g>
<g>
</g>
<g>
</g>
<g>
</g>
</svg>
