<?xml version="1.0" encoding="iso-8859-1"?>
<!-- Generator: Adobe Illustrator 16.0.0, SVG Export Plug-In . SVG Version: 6.00 Build 0)  -->
<!DOCTYPE svg PUBLIC "-//W3C//DTD SVG 1.1//EN" "http://www.w3.org/Graphics/SVG/1.1/DTD/svg11.dtd">
<svg version="1.1" id="Capa_1" xmlns="http://www.w3.org/2000/svg" xmlns:xlink="http://www.w3.org/1999/xlink" x="0px" y="0px"
	 width="980px" height="980px" viewBox="0 0 980 980" style="enable-background:new 0 0 980 980;" xml:space="preserve">
<g>
	<path d="M794.299,218c-0.199,0-0.299,0-0.5,0C786.1,96.3,684.9,0,561.299,0C447.2,0,352.299,82,332.2,190.2
		c-2.601-0.1-5.3-0.2-7.9-0.2c-85,0-156.7,56.3-180.1,133.6c-3.6-0.3-7.3-0.5-11-0.5c-67.1,0-121.6,54.4-121.6,121.6
		c0,67.1,54.4,121.6,121.6,121.6c1,0,216.1,0,216.1,0v-82.8c0-52.4,42.601-95,95-95h217c52.4,0,95,42.6,95,95v82.8h38
		c96.201,0,174.102-78,174.102-174.1C968.4,296.1,890.5,218,794.299,218z"/>
	<path d="M711.299,483.5c0-27.6-22.398-50-50-50h-217c-27.6,0-50,22.4-50,50v141.2h-65.6c-43,0-65.9,50.7-37.6,83l224.1,255.3
		c10,11.3,23.801,17,37.6,17c13.801,0,27.602-5.7,37.602-17l224.1-255.4c28.4-32.3,5.4-83-37.6-83h-65.602V483.5L711.299,483.5z"/>
</g>
<g>
</g>
<g>
</g>
<g>
</g>
<g>
</g>
<g>
</g>
<g>
</g>
<g>
</g>
<g>
</g>
<g>
</g>
<g>
</g>
<g>
</g>
<g>
</g>
<g>
</g>
<g>
</g>
<g>
</g>
</svg>
