<?xml version="1.0" encoding="iso-8859-1"?>
<!-- Generator: Adobe Illustrator 16.0.0, SVG Export Plug-In . SVG Version: 6.00 Build 0)  -->
<!DOCTYPE svg PUBLIC "-//W3C//DTD SVG 1.1//EN" "http://www.w3.org/Graphics/SVG/1.1/DTD/svg11.dtd">
<svg version="1.1" id="Capa_1" xmlns="http://www.w3.org/2000/svg" xmlns:xlink="http://www.w3.org/1999/xlink" x="0px" y="0px"
	 width="866.1px" height="866.1px" viewBox="0 0 866.1 866.1" style="enable-background:new 0 0 866.1 866.1;" xml:space="preserve"
	>
<g>
	<path d="M155.95,50v766.1c0,27.6,22.4,50,50,50h454.199c27.602,0,50-22.4,50-50V50c0-27.6-22.398-50-50-50H205.95
		C178.35,0,155.95,22.4,155.95,50z M433.05,834.199c-21.2,0-38.4-17.199-38.4-38.398c0-21.201,17.2-38.4,38.4-38.4
		c21.201,0,38.4,17.199,38.4,38.4C471.45,817,454.251,834.199,433.05,834.199z M376.05,54.1h114c8.801,0,16,7.2,16,16
		s-7.199,16-16,16h-114c-8.8,0-16-7.2-16-16S367.25,54.1,376.05,54.1z M254.951,139.8h356.199v586.5H254.951V139.8z"/>
</g>
<g>
</g>
<g>
</g>
<g>
</g>
<g>
</g>
<g>
</g>
<g>
</g>
<g>
</g>
<g>
</g>
<g>
</g>
<g>
</g>
<g>
</g>
<g>
</g>
<g>
</g>
<g>
</g>
<g>
</g>
</svg>
