<?xml version="1.0" encoding="iso-8859-1"?>
<!-- Generator: Adobe Illustrator 16.0.0, SVG Export Plug-In . SVG Version: 6.00 Build 0)  -->
<!DOCTYPE svg PUBLIC "-//W3C//DTD SVG 1.1//EN" "http://www.w3.org/Graphics/SVG/1.1/DTD/svg11.dtd">
<svg version="1.1" id="Capa_1" xmlns="http://www.w3.org/2000/svg" xmlns:xlink="http://www.w3.org/1999/xlink" x="0px" y="0px"
	 width="941.6px" height="941.599px" viewBox="0 0 941.6 941.599" style="enable-background:new 0 0 941.6 941.599;"
	 xml:space="preserve">
<g>
	<g>
		<path d="M528.4,362.35c50.699-50.7,118.1-78.601,189.9-78.601l0,0c5.299,0,10.699,0.2,15.898,0.5v-64c0-27.6-22.398-50-50-50H50
			c-27.6,0-50,22.4-50,50v131.9c0,27.6,22.4,50,50,50h445.5C505.1,387.95,516.1,374.65,528.4,362.35z M108.1,319.35
			c-18.3,0-33.1-14.801-33.1-33.101s14.8-33.1,33.1-33.1s33.1,14.8,33.1,33.1C141.3,304.45,126.4,319.35,108.1,319.35z"/>
		<path d="M734.199,329.25c-5.299-0.399-10.6-0.6-15.898-0.6l0,0c-59.701,0-115.801,23.3-158,65.5c-2.602,2.6-5.102,5.3-7.602,8
			c-15.699,17.3-28.398,36.6-38,57.7l-37.1-0.2h-0.1c-11.5,0-18.7,12.399-13,22.399l74.3,130.301c2.898,5,8,7.6,13,7.6
			s10-2.5,12.898-7.4L640.4,483.15c5.799-10-1.301-22.5-12.9-22.601l-26-0.1c3.6-4.6,7.5-9,11.699-13.2
			c28.102-28.1,65.301-43.5,105-43.5c39.701,0,77,15.4,105,43.5c57.9,57.9,57.9,152.101,0,210c-20,20-45,33.7-72.199,39.9
			c-16.301,3.7-27.5,18.5-27,35.2l0.199,5.1c0.602,19.2,16.5,33.9,34.801,33.9c2.5,0,5-0.301,7.5-0.801
			c41.301-9.1,79.199-29.8,109.6-60.199c42.201-42.2,65.5-98.301,65.5-158.101c0-59.7-23.199-115.8-65.5-158
			C838.199,356.049,787.699,333.049,734.199,329.25z"/>
		<path d="M815.4,588.049c7.799-7,12.699-17.1,12.5-28.3c-0.201-7.899-2.701-15.2-7-21.1c-6.801-9.5-17.9-15.601-30.5-15.601H753.6
			v-41.1c0-13.3-7-25-17.4-31.7c-5.6-3.6-12.199-5.7-19.299-5.8c-8.301-0.2-15.9,2.5-22.201,7c-3.5,2.5-6.6,5.7-9.1,9.2
			c-4.4,6.3-7,13.899-7,22v69.8c0,25.1,20.4,45.5,45.5,45.5h65.5C799.5,597.95,808.5,594.15,815.4,588.049z"/>
	</g>
</g>
<g>
</g>
<g>
</g>
<g>
</g>
<g>
</g>
<g>
</g>
<g>
</g>
<g>
</g>
<g>
</g>
<g>
</g>
<g>
</g>
<g>
</g>
<g>
</g>
<g>
</g>
<g>
</g>
<g>
</g>
</svg>
