<?xml version="1.0" encoding="iso-8859-1"?>
<!-- Generator: Adobe Illustrator 16.0.0, SVG Export Plug-In . SVG Version: 6.00 Build 0)  -->
<!DOCTYPE svg PUBLIC "-//W3C//DTD SVG 1.1//EN" "http://www.w3.org/Graphics/SVG/1.1/DTD/svg11.dtd">
<svg version="1.1" id="Capa_1" xmlns="http://www.w3.org/2000/svg" xmlns:xlink="http://www.w3.org/1999/xlink" x="0px" y="0px"
	 width="962.2px" height="962.2px" viewBox="0 0 962.2 962.2" style="enable-background:new 0 0 962.2 962.2;" xml:space="preserve"
	>
<g>
	<g>
		<rect x="433.55" y="799.2" width="95" height="163"/>
		<path d="M593.951,50c0-27.6-22.4-50-50-50H418.15c-27.6,0-50,22.4-50,50v124.6h225.7V50H593.951z M541.65,79.7H420.451
			c-10.9,0-19.7-8.8-19.7-19.7c0-10.9,8.8-19.8,19.7-19.8h121.3c10.899,0,19.7,8.8,19.7,19.7C561.451,70.8,552.55,79.7,541.65,79.7z
			"/>
		<path d="M322.35,223.1v477.6c0,27.6,22.4,50,50,50h217.5c27.601,0,50-22.4,50-50V223.1H322.35z"/>
	</g>
</g>
<g>
</g>
<g>
</g>
<g>
</g>
<g>
</g>
<g>
</g>
<g>
</g>
<g>
</g>
<g>
</g>
<g>
</g>
<g>
</g>
<g>
</g>
<g>
</g>
<g>
</g>
<g>
</g>
<g>
</g>
</svg>
