<?xml version="1.0" encoding="iso-8859-1"?>
<!-- Generator: Adobe Illustrator 16.0.0, SVG Export Plug-In . SVG Version: 6.00 Build 0)  -->
<!DOCTYPE svg PUBLIC "-//W3C//DTD SVG 1.1//EN" "http://www.w3.org/Graphics/SVG/1.1/DTD/svg11.dtd">
<svg version="1.1" id="Capa_1" xmlns="http://www.w3.org/2000/svg" xmlns:xlink="http://www.w3.org/1999/xlink" x="0px" y="0px"
	 width="940px" height="940px" viewBox="0 0 940 940" style="enable-background:new 0 0 940 940;" xml:space="preserve">
<g>
	<g>
		<path d="M595.149,50c0-27.6-22.399-50-50-50H394.95c-27.601,0-50,22.4-50,50v106.1h250.199V50z M441.149,88.3h-44.6V52h44.6V88.3z
			 M542.35,88.3h-44.6V52h44.6V88.3z"/>
		<path d="M329.45,940h281.1c27.6,0,50-22.4,50-50V251.1c0-27.6-22.4-50-50-50h-281.1c-27.601,0-50,22.4-50,50V890
			C279.45,917.6,301.85,940,329.45,940z"/>
	</g>
</g>
<g>
</g>
<g>
</g>
<g>
</g>
<g>
</g>
<g>
</g>
<g>
</g>
<g>
</g>
<g>
</g>
<g>
</g>
<g>
</g>
<g>
</g>
<g>
</g>
<g>
</g>
<g>
</g>
<g>
</g>
</svg>
