<?xml version="1.0" encoding="iso-8859-1"?>
<!-- Generator: Adobe Illustrator 16.0.0, SVG Export Plug-In . SVG Version: 6.00 Build 0)  -->
<!DOCTYPE svg PUBLIC "-//W3C//DTD SVG 1.1//EN" "http://www.w3.org/Graphics/SVG/1.1/DTD/svg11.dtd">
<svg version="1.1" id="Capa_1" xmlns="http://www.w3.org/2000/svg" xmlns:xlink="http://www.w3.org/1999/xlink" x="0px" y="0px"
	 width="686px" height="686px" viewBox="0 0 686 686" style="enable-background:new 0 0 686 686;" xml:space="preserve">
<g>
	<path d="M578.5,22C564.4,7.9,545.3,0,525.4,0H93.6c-27.6,0-50,22.4-50,50v586c0,27.6,22.4,50,50,50h498.8c27.6,0,50-22.4,50-50V117
		c0-19.9-7.9-38.9-21.9-53L578.5,22z M571.8,152.2v36.4H454.4v-86.4h67.5C549.4,102.2,571.8,124.6,571.8,152.2z M571.8,335H454.4
		v-97.4h117.5V335H571.8z M571.8,481.5H454.4V384h117.5v97.5H571.8z M114.2,382h122.2v101.5H114.2V382z M114.2,235.5h122.2V337
		H114.2V235.5z M114.2,152.2c0-27.6,22.4-50,50-50h72.2v88.4H114.2V152.2z M114.2,568.2v-39.8h122.2v89.8h-72.1
		C136.6,618.2,114.2,595.8,114.2,568.2z M286.4,102.2h118v516h-118V102.2z M571.8,568.2c0,27.6-22.4,50-50,50h-67.4v-87.7h117.5
		v37.7H571.8z"/>
</g>
<g>
</g>
<g>
</g>
<g>
</g>
<g>
</g>
<g>
</g>
<g>
</g>
<g>
</g>
<g>
</g>
<g>
</g>
<g>
</g>
<g>
</g>
<g>
</g>
<g>
</g>
<g>
</g>
<g>
</g>
</svg>
