<?xml version="1.0" encoding="iso-8859-1"?>
<!-- Generator: Adobe Illustrator 16.0.0, SVG Export Plug-In . SVG Version: 6.00 Build 0)  -->
<!DOCTYPE svg PUBLIC "-//W3C//DTD SVG 1.1//EN" "http://www.w3.org/Graphics/SVG/1.1/DTD/svg11.dtd">
<svg version="1.1" id="Capa_1" xmlns="http://www.w3.org/2000/svg" xmlns:xlink="http://www.w3.org/1999/xlink" x="0px" y="0px"
	 width="836.2px" height="836.2px" viewBox="0 0 836.2 836.2" style="enable-background:new 0 0 836.2 836.2;" xml:space="preserve"
	>
<g>
	<g>
		<rect x="370.601" y="643.2" width="95" height="193"/>
		<path d="M603.1,50c0-27.6-22.4-50-50-50h-270c-27.6,0-50,22.4-50,50v170.1h370V50z M377.301,128.9h-80.3V63.6h80.3V128.9z
			 M539.301,128.9H459V63.6h80.301V128.9z"/>
		<path d="M156,265.101v111.1c0,12.8,4.9,25.2,13.8,34.5l127.3,133.5v54h242v-54l127.301-133.5c8.9-9.3,13.799-21.7,13.799-34.5
			v-111.1H156z"/>
	</g>
</g>
<g>
</g>
<g>
</g>
<g>
</g>
<g>
</g>
<g>
</g>
<g>
</g>
<g>
</g>
<g>
</g>
<g>
</g>
<g>
</g>
<g>
</g>
<g>
</g>
<g>
</g>
<g>
</g>
<g>
</g>
</svg>
